<?xml version="1.0" encoding="utf-8"?>
<!-- Generator: Adobe Illustrator 22.1.0, SVG Export Plug-In . SVG Version: 6.00 Build 0)  -->
<svg version="1.1" id="Layer_1" xmlns="http://www.w3.org/2000/svg" xmlns:xlink="http://www.w3.org/1999/xlink" x="0px" y="0px"
	 viewBox="0 0 1046.4 1157.4" style="enable-background:new 0 0 1046.4 1157.4;" xml:space="preserve">
<style type="text/css">
	.st0{fill:#0459A1;}
	.st1{fill:none;}
	.st2{fill:#90D1E1;}
	.st3{fill:#E0DDF0;}
	.st4{fill:url(#SVGID_1_);}
	.st5{fill:url(#SVGID_2_);}
	.st6{fill:url(#SVGID_3_);}
	.st7{fill:url(#SVGID_4_);}
	.st8{opacity:0.49;}
	.st9{fill:url(#SVGID_5_);}
	.st10{fill:url(#SVGID_6_);}
	.st11{fill:url(#SVGID_7_);}
	.st12{fill:url(#SVGID_8_);}
	.st13{opacity:0.54;}
	.st14{fill:url(#SVGID_9_);}
	.st15{fill:url(#SVGID_10_);}
	.st16{fill:url(#SVGID_11_);}
	.st17{fill:url(#SVGID_12_);}
	.st18{fill:url(#SVGID_13_);}
	.st19{fill:url(#SVGID_14_);}
	.st20{opacity:0.74;}
	.st21{fill:url(#SVGID_15_);}
	.st22{fill:url(#SVGID_16_);}
	.st23{opacity:0.18;}
	.st24{fill:url(#SVGID_17_);}
	.st25{opacity:0.41;}
	.st26{fill:url(#SVGID_18_);}
	.st27{fill:url(#SVGID_19_);}
	.st28{opacity:0.47;fill:url(#SVGID_20_);}
	.st29{fill:url(#SVGID_21_);}
	.st30{opacity:0.47;fill:url(#SVGID_22_);}
	.st31{fill:url(#SVGID_23_);}
	.st32{opacity:0.8;}
	.st33{fill:url(#SVGID_24_);}
	.st34{opacity:0.5;}
	.st35{fill:url(#SVGID_25_);}
	.st36{fill:url(#SVGID_26_);}
	.st37{fill:url(#SVGID_27_);}
	.st38{fill:#FFFFFF;}
	.st39{opacity:0.35;}
	.st40{fill:url(#SVGID_28_);}
	.st41{fill:url(#SVGID_29_);}
	.st42{fill:url(#SVGID_30_);}
	.st43{fill:url(#SVGID_31_);}
	.st44{opacity:0.56;}
	.st45{fill:url(#SVGID_32_);}
	.st46{fill:url(#SVGID_33_);}
	.st47{opacity:0.4;}
	.st48{fill:url(#SVGID_34_);}
	.st49{fill:url(#SVGID_35_);}
	.st50{fill:url(#SVGID_36_);}
	.st51{fill:url(#SVGID_37_);}
	.st52{fill:url(#SVGID_38_);}
	.st53{fill:url(#SVGID_39_);}
	.st54{fill:url(#SVGID_40_);}
	.st55{fill:url(#SVGID_41_);}
	.st56{fill:url(#SVGID_42_);}
	.st57{fill:url(#SVGID_43_);}
	.st58{fill:url(#SVGID_44_);}
	.st59{fill:url(#SVGID_45_);}
	.st60{fill:url(#SVGID_46_);}
	.st61{fill:url(#SVGID_47_);}
	.st62{fill:url(#SVGID_48_);}
	.st63{fill:url(#SVGID_49_);}
	.st64{fill:url(#SVGID_50_);}
	.st65{fill:url(#SVGID_51_);}
	.st66{fill:url(#SVGID_52_);}
	.st67{opacity:0.47;fill:url(#SVGID_53_);}
	.st68{fill:url(#SVGID_54_);}
	.st69{opacity:0.47;fill:url(#SVGID_55_);}
	.st70{fill:url(#SVGID_56_);}
	.st71{fill:url(#SVGID_57_);}
	.st72{fill:url(#SVGID_58_);}
	.st73{fill:url(#SVGID_59_);}
	.st74{fill:url(#SVGID_60_);}
	.st75{fill:url(#SVGID_61_);}
	.st76{fill:url(#SVGID_62_);}
	.st77{fill:url(#SVGID_63_);}
	.st78{fill:url(#SVGID_64_);}
	.st79{fill:url(#SVGID_65_);}
	.st80{fill:url(#SVGID_66_);}
	.st81{fill:#949ECF;}
	.st82{opacity:0.6;}
	.st83{fill:url(#SVGID_67_);}
	.st84{fill:url(#SVGID_68_);}
	.st85{opacity:0.29;}
	.st86{fill:url(#SVGID_69_);}
	.st87{fill:url(#SVGID_70_);}
	.st88{fill:url(#SVGID_71_);}
	.st89{opacity:0.85;}
	.st90{fill:url(#SVGID_72_);}
	.st91{fill:url(#SVGID_73_);}
	.st92{fill:url(#SVGID_74_);}
	.st93{fill:url(#SVGID_75_);}
	.st94{opacity:0.42;}
	.st95{fill:url(#SVGID_76_);}
	.st96{fill:url(#SVGID_77_);}
	.st97{fill:url(#SVGID_78_);}
	.st98{fill:url(#SVGID_79_);}
	.st99{fill:url(#SVGID_80_);}
	.st100{opacity:0.47;fill:url(#SVGID_81_);}
	.st101{fill:url(#SVGID_82_);}
	.st102{opacity:0.47;fill:url(#SVGID_83_);}
	.st103{fill:url(#SVGID_84_);}
	.st104{fill:url(#SVGID_85_);}
	.st105{fill:url(#SVGID_86_);}
	.st106{fill:url(#SVGID_87_);}
	.st107{fill:url(#SVGID_88_);}
	.st108{fill:url(#SVGID_89_);}
	.st109{fill:url(#SVGID_90_);}
	.st110{fill:url(#SVGID_91_);}
	.st111{fill:#7488C4;}
	.st112{fill:url(#SVGID_92_);}
	.st113{fill:url(#SVGID_93_);}
	.st114{fill:url(#SVGID_94_);}
	.st115{fill:url(#SVGID_95_);}
	.st116{fill:url(#SVGID_96_);}
	.st117{opacity:0.43;fill:url(#SVGID_97_);}
	.st118{opacity:0.28;fill:url(#SVGID_98_);}
	.st119{opacity:0.31;fill:url(#SVGID_99_);}
	.st120{fill:url(#SVGID_100_);}
	.st121{fill:#020203;}
	.st122{fill:#62C6EB;}
	.st123{fill:url(#SVGID_101_);}
	.st124{opacity:0.38;}
	.st125{fill:url(#SVGID_102_);}
	.st126{fill:url(#SVGID_103_);}
	.st127{fill:url(#SVGID_104_);}
	.st128{fill:url(#SVGID_105_);}
	.st129{opacity:0.78;}
	.st130{fill:url(#SVGID_106_);}
	.st131{fill:url(#SVGID_107_);}
	.st132{fill:url(#SVGID_108_);}
	.st133{fill:url(#SVGID_109_);}
	.st134{fill:url(#SVGID_110_);}
	.st135{opacity:0.66;}
	.st136{fill:url(#SVGID_111_);}
	.st137{fill:url(#SVGID_112_);}
	.st138{fill:url(#SVGID_113_);}
	.st139{opacity:0.68;}
	.st140{fill:url(#SVGID_114_);}
	.st141{fill:url(#SVGID_115_);}
	.st142{fill:url(#SVGID_116_);}
	.st143{fill:url(#SVGID_117_);}
	.st144{fill:url(#SVGID_118_);}
	.st145{fill:url(#SVGID_119_);}
	.st146{fill:url(#SVGID_120_);}
	.st147{fill:url(#SVGID_121_);}
	.st148{fill:url(#SVGID_122_);}
	.st149{fill:url(#SVGID_123_);}
	.st150{fill:url(#SVGID_124_);}
	.st151{fill:url(#SVGID_125_);}
	.st152{fill:url(#SVGID_126_);}
	.st153{fill:url(#SVGID_127_);}
	.st154{fill:url(#SVGID_128_);}
	.st155{fill:url(#SVGID_129_);}
	.st156{fill:url(#SVGID_130_);}
	.st157{fill:url(#SVGID_131_);}
	.st158{fill:url(#SVGID_132_);}
	.st159{opacity:0.46;}
	.st160{fill:url(#SVGID_133_);}
	.st161{fill:url(#SVGID_134_);}
	.st162{opacity:0.47;}
	.st163{fill:url(#SVGID_135_);}
	.st164{opacity:0.5;fill:url(#SVGID_136_);}
	.st165{fill:url(#SVGID_137_);}
	.st166{opacity:0.81;}
	.st167{fill:url(#SVGID_138_);}
	.st168{fill:url(#SVGID_139_);}
	.st169{fill:url(#SVGID_140_);}
	.st170{fill:url(#SVGID_141_);}
	.st171{fill:url(#SVGID_142_);}
	.st172{fill:url(#SVGID_143_);}
	.st173{fill:url(#SVGID_144_);}
	.st174{fill:url(#SVGID_145_);}
	.st175{fill:url(#SVGID_146_);}
	.st176{fill:url(#SVGID_147_);}
	.st177{fill:url(#SVGID_148_);}
	.st178{fill:url(#SVGID_149_);}
	.st179{fill:url(#SVGID_150_);}
	.st180{fill:url(#SVGID_151_);}
	.st181{fill:url(#SVGID_152_);}
	.st182{fill:url(#SVGID_153_);}
	.st183{fill:url(#SVGID_154_);}
	.st184{fill:url(#SVGID_155_);}
	.st185{fill:url(#SVGID_156_);}
	.st186{fill:url(#SVGID_157_);}
	.st187{opacity:0.47;fill:url(#SVGID_158_);}
	.st188{fill:url(#SVGID_159_);}
	.st189{opacity:0.47;fill:url(#SVGID_160_);}
	.st190{fill:url(#SVGID_161_);}
	.st191{fill:url(#SVGID_162_);}
	.st192{fill:url(#SVGID_163_);}
	.st193{fill:url(#SVGID_164_);}
	.st194{fill:url(#SVGID_165_);}
	.st195{fill:url(#SVGID_166_);}
	.st196{fill:url(#SVGID_167_);}
	.st197{fill:url(#SVGID_168_);}
	.st198{fill:url(#SVGID_169_);}
	.st199{fill:url(#SVGID_170_);}
	.st200{fill:url(#SVGID_171_);}
	.st201{fill:url(#SVGID_172_);}
	.st202{fill:url(#SVGID_173_);}
	.st203{fill:url(#SVGID_174_);}
	.st204{fill:url(#SVGID_175_);}
	.st205{fill:url(#SVGID_176_);}
	.st206{fill:url(#SVGID_177_);}
	.st207{fill:url(#SVGID_178_);}
	.st208{fill:url(#SVGID_179_);}
	.st209{fill:url(#SVGID_180_);}
	.st210{fill:url(#SVGID_181_);}
	.st211{fill:url(#SVGID_182_);}
	.st212{fill:url(#SVGID_183_);}
	.st213{fill:url(#SVGID_184_);}
	.st214{fill:url(#SVGID_185_);}
	.st215{fill:url(#SVGID_186_);}
	.st216{opacity:0.47;fill:url(#SVGID_187_);}
	.st217{fill:url(#SVGID_188_);}
	.st218{opacity:0.47;fill:url(#SVGID_189_);}
	.st219{fill:url(#SVGID_190_);}
	.st220{fill:url(#SVGID_191_);}
	.st221{fill:url(#SVGID_192_);}
	.st222{fill:url(#SVGID_193_);}
	.st223{fill:url(#SVGID_194_);}
	.st224{opacity:0.61;}
	.st225{opacity:0.31;}
	.st226{fill:url(#SVGID_195_);}
	.st227{fill:url(#SVGID_196_);}
	.st228{fill:url(#SVGID_197_);}
	.st229{fill:url(#SVGID_198_);}
	.st230{fill:url(#SVGID_199_);}
	.st231{fill:url(#SVGID_200_);}
	.st232{fill:url(#SVGID_201_);}
	.st233{fill:url(#SVGID_202_);}
	.st234{fill:url(#SVGID_203_);}
	.st235{fill:url(#SVGID_204_);}
	.st236{fill:url(#SVGID_205_);}
	.st237{fill:url(#SVGID_206_);}
	.st238{fill:url(#SVGID_207_);}
	.st239{fill:url(#SVGID_208_);}
	.st240{fill:url(#SVGID_209_);}
	.st241{fill:url(#SVGID_210_);}
	.st242{fill:url(#SVGID_211_);}
	.st243{fill:url(#SVGID_212_);}
	.st244{fill:url(#SVGID_213_);}
	.st245{fill:url(#SVGID_214_);}
	.st246{fill:url(#SVGID_215_);}
	.st247{fill:url(#SVGID_216_);}
	.st248{fill:url(#SVGID_217_);}
	.st249{fill:url(#SVGID_218_);}
	.st250{fill:url(#SVGID_219_);}
	.st251{fill:url(#SVGID_220_);}
	.st252{fill:url(#SVGID_221_);}
	.st253{fill:url(#SVGID_222_);}
	.st254{fill:url(#SVGID_223_);}
	.st255{opacity:0.47;fill:url(#SVGID_224_);}
	.st256{fill:url(#SVGID_225_);}
	.st257{opacity:0.47;fill:url(#SVGID_226_);}
	.st258{fill:url(#SVGID_227_);}
	.st259{fill:url(#SVGID_228_);}
	.st260{fill:url(#SVGID_229_);}
	.st261{fill:url(#SVGID_230_);}
	.st262{fill:url(#SVGID_231_);}
	.st263{fill:url(#SVGID_232_);}
	.st264{fill:url(#SVGID_233_);}
	.st265{fill:url(#SVGID_234_);}
	.st266{fill:url(#SVGID_235_);}
	.st267{fill:url(#SVGID_236_);}
	.st268{fill:url(#SVGID_237_);}
	.st269{fill:#0471B7;}
	.st270{fill:#F28C4E;}
	.st271{fill:#0774B4;}
	.st272{fill:#F18752;}
	.st273{fill:#F1844D;}
	.st274{fill:#0E6BAD;}
	.st275{fill:none;stroke:#FFFFFF;stroke-miterlimit:10;stroke-dasharray:5;}
	.st276{fill:none;stroke:#FFFFFF;stroke-width:1.5;stroke-miterlimit:10;stroke-dasharray:10,10;}
</style>
<g>
	<path class="st38" d="M748.7,1157.4c-2-1.5-4.7-3.1-8.2-5l0.7-1.3c3.5,1.9,6.2,3.6,8.3,5.1L748.7,1157.4z M731.7,1147.8
		c-2.3-1.2-4.7-2.4-7.2-3.7l-1.7-0.9l0.7-1.3l1.7,0.9c2.5,1.3,4.9,2.5,7.2,3.7L731.7,1147.8z M713.8,1138.7
		c-3.2-1.6-6.1-3.2-8.9-4.7l0.7-1.3c2.8,1.5,5.7,3,8.9,4.6L713.8,1138.7z M696.2,1129.2c-3-1.7-5.9-3.4-8.7-5l0.8-1.3
		c2.8,1.7,5.7,3.3,8.7,5L696.2,1129.2z M678.9,1119c-2.9-1.8-5.7-3.7-8.4-5.5l0.8-1.2c2.7,1.8,5.5,3.7,8.4,5.5L678.9,1119z
		 M662.3,1107.7c-2.7-2-5.4-4-8-6.1l0.9-1.2c2.6,2,5.2,4.1,7.9,6L662.3,1107.7z M646.6,1095.3c-2.6-2.2-5.1-4.5-7.5-6.7l1-1.1
		c2.4,2.2,4.9,4.5,7.4,6.7L646.6,1095.3z M632,1081.5c-2.3-2.4-4.6-4.9-6.8-7.4l1.1-1c2.2,2.5,4.4,4.9,6.7,7.3L632,1081.5z
		 M618.8,1066.3c-2.1-2.6-4.1-5.4-6-8.1l1.2-0.9c1.9,2.7,3.9,5.4,5.9,8L618.8,1066.3z M607.4,1049.9c-1.7-2.8-3.4-5.8-5-8.7l1.3-0.7
		c1.6,2.9,3.2,5.8,5,8.6L607.4,1049.9z M597.9,1032.2c-1.4-3-2.7-6.1-3.9-9.2l1.4-0.5c1.2,3.1,2.5,6.2,3.9,9.1L597.9,1032.2z
		 M590.6,1013.5c-1-3.2-2-6.4-2.8-9.6l1.5-0.4c0.8,3.2,1.8,6.4,2.8,9.5L590.6,1013.5z M585.5,994.1c-0.7-3.2-1.2-6.6-1.7-9.9
		l1.5-0.2c0.5,3.3,1.1,6.6,1.7,9.8L585.5,994.1z M582.6,974.3c-0.3-3.3-0.5-6.6-0.7-10l1.5-0.1c0.1,3.3,0.4,6.7,0.7,9.9L582.6,974.3
		z M583.2,954.3l-1.5,0c0-2.5,0.1-5,0.1-7.5c0-0.9,0.1-1.7,0.1-2.6l1.5,0.1c-0.1,0.8-0.1,1.7-0.1,2.5
		C583.3,949.3,583.2,951.8,583.2,954.3z M584.8,934.5l-1.5-0.3c0.6-3.2,1.4-6.5,2.3-9.8l1.4,0.4
		C586.1,928.2,585.3,931.4,584.8,934.5z M590.3,915.6l-1.4-0.5c1.2-3,2.5-6.1,4-9.2l1.4,0.6C592.7,909.5,591.4,912.6,590.3,915.6z
		 M598.7,897.6l-1.3-0.7c1.6-2.8,3.2-5.7,5-8.7l1.3,0.8C601.9,891.9,600.2,894.8,598.7,897.6z M609.1,880.6l-1.2-0.8
		c1.8-2.7,3.7-5.4,5.8-8.2l1.2,0.9C612.8,875.2,610.9,878,609.1,880.6z M620.8,864.5l-1.2-0.9c2-2.6,4.1-5.2,6.3-7.8l1.2,1
		C624.9,859.3,622.8,862,620.8,864.5z M633.5,849.1l-1.1-1c2.1-2.5,4.3-5,6.6-7.5l1.1,1C637.8,844.1,635.6,846.6,633.5,849.1z
		 M646.8,834.2l-1.1-1c2.2-2.4,4.5-4.8,6.9-7.3l1.1,1C651.3,829.3,649,831.8,646.8,834.2z M660.6,819.7l-1.1-1
		c2.3-2.4,4.7-4.7,7.1-7.1l1.1,1.1C665.3,815,662.9,817.3,660.6,819.7z M674.8,805.6l-1-1.1c2.4-2.3,4.8-4.6,7.2-7l1,1.1
		C679.5,801,677.1,803.3,674.8,805.6z M689.2,791.7l-1-1.1c2.4-2.3,4.8-4.6,7.3-6.9l1,1.1C694,787.2,691.6,789.4,689.2,791.7z
		 M703.8,778.1l-1-1.1c2.4-2.2,4.9-4.5,7.4-6.8l1,1.1C708.7,773.6,706.2,775.8,703.8,778.1z M718.6,764.6l-1-1.1
		c2.5-2.2,4.9-4.5,7.4-6.7l1,1.1C723.5,760.1,721,762.3,718.6,764.6z M733.4,751.2l-1-1.1c2.5-2.2,5-4.4,7.5-6.7l1,1.1
		C738.4,746.8,735.9,749,733.4,751.2z M748.4,737.9l-1-1.1l7.5-6.6l1,1.1L748.4,737.9z M763.4,724.6l-1-1.1l7.5-6.6l1,1.1
		L763.4,724.6z M778.3,711.3l-1-1.1c2.5-2.2,5-4.4,7.5-6.6l1,1.1C783.3,706.9,780.8,709.1,778.3,711.3z M793.3,698l-1-1.1
		c2.5-2.2,5-4.4,7.5-6.7l1,1.1C798.3,693.6,795.8,695.8,793.3,698z M808.2,684.7l-1-1.1c2.5-2.2,5-4.5,7.4-6.7l1,1.1
		C813.2,680.2,810.7,682.4,808.2,684.7z M823,671.2l-1-1.1c2.5-2.2,4.9-4.5,7.4-6.7l1,1.1C828,666.7,825.5,669,823,671.2z
		 M837.8,657.7l-1-1.1c2.4-2.3,4.9-4.5,7.3-6.8l1,1.1C842.7,653.2,840.2,655.4,837.8,657.7z M852.5,644l-1-1.1
		c2.4-2.3,4.9-4.6,7.3-6.9l1,1.1C857.3,639.4,854.9,641.7,852.5,644z M867,630.2l-1-1.1c2.4-2.3,4.8-4.6,7.2-7l1,1.1
		C871.8,625.5,869.4,627.9,867,630.2z M881.3,616.2l-1.1-1.1c2.4-2.3,4.7-4.7,7.1-7.1l1.1,1.1C886,611.5,883.7,613.8,881.3,616.2z
		 M895.4,602l-1.1-1c2.3-2.4,4.6-4.8,6.9-7.1l1.1,1C900,597.3,897.7,599.6,895.4,602z M909.3,587.6l-1.1-1c2.3-2.4,4.6-4.9,6.8-7.3
		l1.1,1C913.8,582.8,911.6,585.2,909.3,587.6z M922.9,572.9l-1.1-1c2.2-2.5,4.5-4.9,6.7-7.4l1.1,1
		C927.4,568,925.1,570.5,922.9,572.9z M936.2,558l-1.1-1c2.2-2.5,4.4-5.1,6.5-7.6l1.1,1C940.5,552.9,938.4,555.4,936.2,558z
		 M949.1,542.7l-1.2-1c2.1-2.6,4.3-5.2,6.3-7.8l1.2,0.9C953.4,537.5,951.3,540.1,949.1,542.7z M961.6,527.1l-1.2-0.9
		c2.1-2.6,4.1-5.3,6.1-7.9l1.2,0.9C965.8,521.7,963.7,524.4,961.6,527.1z M973.7,511.1l-1.2-0.9c2-2.7,3.9-5.5,5.8-8.1l1.2,0.9
		C977.6,505.6,975.7,508.3,973.7,511.1z M985.2,494.7l-1.2-0.8c1.9-2.8,3.7-5.6,5.5-8.3l1.3,0.8
		C988.9,489.1,987.1,491.9,985.2,494.7z M996.1,477.8l-1.3-0.8c1.8-2.9,3.5-5.7,5.1-8.6l1.3,0.8C999.6,472.1,997.8,475,996.1,477.8z
		 M1006.2,460.6l-1.3-0.7c1.6-2.9,3.2-5.9,4.7-8.8l1.3,0.7C1009.4,454.7,1007.8,457.6,1006.2,460.6z M1015.5,442.8l-1.3-0.7
		c1.5-3,2.9-6,4.3-9l1.4,0.6C1018.4,436.7,1017,439.8,1015.5,442.8z M1023.8,424.6l-1.4-0.6c1.3-3.1,2.6-6.2,3.7-9.2l1.4,0.5
		C1026.4,418.4,1025.1,421.5,1023.8,424.6z M1031.1,405.9l-1.4-0.5c1.1-3.2,2.2-6.3,3.1-9.5l1.4,0.5
		C1033.3,399.5,1032.2,402.7,1031.1,405.9z M1037.1,386.8l-1.4-0.4c0.9-3.2,1.7-6.5,2.5-9.6l1.5,0.3
		C1038.8,380.3,1038,383.6,1037.1,386.8z M1041.7,367.3l-1.5-0.3c0.6-3.3,1.2-6.6,1.7-9.8l1.5,0.2
		C1042.9,360.7,1042.3,364,1041.7,367.3z M1044.8,347.5l-1.5-0.2c0.4-3.3,0.7-6.6,0.9-9.9l1.5,0.1
		C1045.5,340.9,1045.2,344.2,1044.8,347.5z M1046.3,327.6l-1.5,0c0.1-2.6,0.1-5.3,0.1-7.9c0-0.7,0-1.4,0-2.1l1.5,0
		c0,0.7,0,1.4,0,2.1C1046.4,322.3,1046.4,324.9,1046.3,327.6z M1044.6,307.6c-0.2-3.3-0.4-6.6-0.7-9.9l1.5-0.1
		c0.3,3.3,0.6,6.7,0.7,10L1044.6,307.6z M1042.8,287.7c-0.4-3.3-1-6.6-1.6-9.8l1.5-0.3c0.6,3.3,1.1,6.6,1.6,9.9L1042.8,287.7z
		 M1039.2,268.1c-0.7-3.2-1.5-6.5-2.4-9.7l1.4-0.4c0.9,3.2,1.7,6.5,2.4,9.7L1039.2,268.1z M1034.1,248.8c-0.2-0.7-0.5-1.5-0.7-2.3
		c-0.8-2.4-1.6-4.8-2.4-7.2l1.4-0.5c0.9,2.4,1.7,4.8,2.5,7.3c0.2,0.8,0.5,1.5,0.7,2.3L1034.1,248.8z M1027.4,230.1
		c-1.3-3.1-2.6-6.1-4-9.1l1.4-0.6c1.4,3,2.8,6.1,4,9.2L1027.4,230.1z M1018.9,212.1c-1.5-2.9-3.2-5.8-4.9-8.7l1.3-0.8
		c1.7,2.9,3.3,5.8,4.9,8.7L1018.9,212.1z M1008.8,195c-1.8-2.7-3.7-5.5-5.7-8.1l1.2-0.9c2,2.7,3.9,5.4,5.8,8.2L1008.8,195z M997,179
		c-2.1-2.5-4.3-5.1-6.5-7.5l1.1-1c2.2,2.5,4.4,5,6.5,7.6L997,179z M983.7,164.2c-2.3-2.3-4.7-4.7-7.2-6.9l1-1.1
		c2.5,2.3,4.9,4.6,7.2,7L983.7,164.2z M969,150.7c-2.5-2.1-5.1-4.2-7.8-6.2l0.9-1.2c2.7,2,5.3,4.1,7.8,6.3L969,150.7z M953.2,138.6
		c-2.7-1.9-5.5-3.8-8.3-5.6l0.8-1.3c2.8,1.8,5.6,3.7,8.3,5.6L953.2,138.6z M936.5,127.8c-2.8-1.7-5.7-3.3-8.6-5l0.7-1.3
		c2.9,1.6,5.9,3.3,8.7,5L936.5,127.8z M919,118.1c-2.9-1.5-5.9-3-9-4.4l0.6-1.4c3,1.4,6.1,2.9,9,4.4L919,118.1z M900.9,109.7
		c-3-1.3-6.1-2.6-9.2-3.8l0.6-1.4c3.1,1.3,6.2,2.6,9.2,3.9L900.9,109.7z M882.4,102.2c-3.1-1.1-6.2-2.3-9.4-3.4l0.5-1.4
		c3.2,1.1,6.4,2.2,9.4,3.4L882.4,102.2z M863.6,95.7c-3.1-1-6.3-2-9.5-2.9l0.4-1.4c3.2,0.9,6.4,1.9,9.6,2.9L863.6,95.7z M844.4,90.1
		c-3.2-0.9-6.4-1.7-9.7-2.5l0.4-1.5c3.3,0.8,6.5,1.7,9.7,2.5L844.4,90.1z M825,85.2c-3.2-0.7-6.5-1.5-9.7-2.2l0.3-1.5
		c3.3,0.7,6.6,1.4,9.8,2.2L825,85.2z M805.5,81c-3.2-0.6-6.5-1.3-9.8-1.9l0.3-1.5c3.3,0.6,6.6,1.2,9.8,1.9L805.5,81z M207,80.4
		c-3.4,0-6.7,0-10-0.1l0-1.5c3.3,0,6.6,0.1,10,0.1L207,80.4z M217,80.4l0-1.5c3.3,0,6.6,0,10-0.1l0,1.5
		C223.6,80.3,220.3,80.3,217,80.4z M237,80.1l0-1.5c3.3-0.1,6.6-0.1,10-0.2l0,1.5C243.6,79.9,240.3,80,237,80.1z M186.9,80.1
		c-3.4-0.1-6.8-0.2-10-0.4l0.1-1.5c3.2,0.1,6.6,0.3,10,0.3L186.9,80.1z M257,79.5l0-1.5c3.3-0.1,6.6-0.2,10-0.4l0.1,1.5
		C263.6,79.3,260.3,79.4,257,79.5z M166.9,79.2c-3.4-0.2-6.8-0.4-10-0.7l0.1-1.5c3.2,0.3,6.6,0.5,10,0.7L166.9,79.2z M277,78.8
		l-0.1-1.5c3.3-0.1,6.6-0.3,10-0.4l0.1,1.5C283.6,78.5,280.3,78.7,277,78.8z M297,77.9l-0.1-1.5c3.3-0.2,6.6-0.3,10-0.5l0.1,1.5
		C303.6,77.6,300.3,77.7,297,77.9z M147,77.6c-3.4-0.4-6.8-0.8-10-1.2l0.2-1.5c3.2,0.4,6.5,0.8,9.9,1.2L147,77.6z M785.9,77.4
		c-3.2-0.5-6.6-1.1-9.9-1.6l0.2-1.5c3.3,0.5,6.6,1,9.9,1.6L785.9,77.4z M317,76.9l-0.1-1.5c3.3-0.2,6.6-0.4,10-0.5l0.1,1.5
		C323.6,76.5,320.3,76.7,317,76.9z M336.9,75.8l-0.1-1.5c3.3-0.2,6.6-0.4,10-0.6l0.1,1.5C343.6,75.4,340.2,75.6,336.9,75.8z
		 M127.1,74.9c-3.4-0.6-6.7-1.2-9.9-1.9l0.3-1.5c3.1,0.7,6.4,1.3,9.8,1.9L127.1,74.9z M356.9,74.6l-0.1-1.5l10-0.6l0.1,1.5
		L356.9,74.6z M766.1,74.4c-3.3-0.5-6.6-0.9-9.9-1.3l0.2-1.5c3.3,0.4,6.6,0.9,9.9,1.3L766.1,74.4z M376.9,73.4l-0.1-1.5l10-0.6
		l0.1,1.5L376.9,73.4z M396.8,72.2l-0.1-1.5l10-0.6l0.1,1.5L396.8,72.2z M746.3,71.8c-3.3-0.4-6.6-0.7-9.9-1.1l0.2-1.5
		c3.3,0.3,6.6,0.7,9.9,1.1L746.3,71.8z M416.8,71.1l-0.1-1.5c3.3-0.2,6.6-0.4,10-0.6l0.1,1.5C423.5,70.7,420.1,70.9,416.8,71.1z
		 M107.5,70.7c-2.5-0.7-5-1.4-7.3-2.2c-0.8-0.3-1.5-0.5-2.2-0.8l0.5-1.4c0.7,0.3,1.5,0.5,2.2,0.8c2.3,0.8,4.8,1.5,7.3,2.2
		L107.5,70.7z M436.8,69.9l-0.1-1.5c3.3-0.2,6.7-0.4,10-0.5l0.1,1.5C443.4,69.6,440.1,69.7,436.8,69.9z M726.4,69.7
		c-3.3-0.3-6.6-0.6-10-0.9l0.1-1.5c3.3,0.3,6.7,0.6,10,0.9L726.4,69.7z M456.7,68.9l-0.1-1.5c3.3-0.2,6.6-0.3,10-0.5l0.1,1.5
		C463.4,68.5,460,68.7,456.7,68.9z M706.5,68.1c-3.3-0.2-6.6-0.5-10-0.7l0.1-1.5c3.3,0.2,6.7,0.5,10,0.7L706.5,68.1z M476.7,67.9
		l-0.1-1.5c3.3-0.2,6.6-0.3,10-0.5l0.1,1.5C483.3,67.6,480,67.7,476.7,67.9z M496.6,67l-0.1-1.5c3.3-0.1,6.7-0.3,10-0.4l0.1,1.5
		C503.3,66.7,499.9,66.8,496.6,67z M686.5,66.7c-3.3-0.2-6.6-0.4-10-0.5l0.1-1.5c3.3,0.2,6.7,0.3,10,0.5L686.5,66.7z M516.6,66.2
		l-0.1-1.5c3.3-0.1,6.7-0.2,10-0.3l0,1.5C523.2,65.9,519.9,66.1,516.6,66.2z M666.6,65.8c-3.3-0.1-6.7-0.3-10-0.4l0.1-1.5
		c3.3,0.1,6.7,0.2,10,0.4L666.6,65.8z M536.5,65.5l0-1.5c3.3-0.1,6.7-0.2,10-0.3l0,1.5C543.2,65.3,539.9,65.4,536.5,65.5z
		 M646.6,65.1c-3.3-0.1-6.7-0.2-10-0.2l0-1.5c3.3,0.1,6.7,0.1,10,0.2L646.6,65.1z M556.5,65l0-1.5c3.3-0.1,6.7-0.1,10-0.2l0,1.5
		C563.2,64.9,559.9,64.9,556.5,65z M626.6,64.7c-3.3,0-6.7-0.1-10-0.1l0-1.5c3.3,0,6.7,0.1,10,0.1L626.6,64.7z M576.5,64.7l0-1.5
		c3.3,0,6.7-0.1,10-0.1l0,1.5C583.2,64.6,579.9,64.6,576.5,64.7z M596.6,64.5l0-1.5c3.3,0,6.7,0,10,0l0,1.5
		C603.2,64.5,599.9,64.5,596.6,64.5z M88.5,64.2c-3.1-1.2-6.3-2.5-9.3-3.8l0.6-1.4c3,1.3,6.1,2.5,9.2,3.7L88.5,64.2z M70.1,56.4
		c-3-1.4-6-2.9-9-4.5l0.7-1.3c2.9,1.5,5.9,3,8.9,4.5L70.1,56.4z M52.3,47c-2.9-1.7-5.8-3.5-8.5-5.3l0.8-1.3c2.7,1.8,5.6,3.5,8.5,5.2
		L52.3,47z M35.5,36.1c-2.7-2-5.4-4-8-6.1l0.9-1.2c2.5,2.1,5.2,4.1,7.9,6L35.5,36.1z M19.9,23.4c-2.5-2.3-5-4.7-7.2-7l1.1-1
		c2.2,2.3,4.6,4.7,7.1,6.9L19.9,23.4z M6,8.9c-4.1-5-5.9-8.1-6-8.2L1.3,0c0,0,1.8,3.1,5.8,8L6,8.9z"/>
</g>
</svg>
